<?xml version="1.0" encoding="utf-8"?>
<!-- Generator: Adobe Illustrator 19.2.0, SVG Export Plug-In . SVG Version: 6.00 Build 0)  -->
<svg version="1.1" id="Слой_1" xmlns="http://www.w3.org/2000/svg" xmlns:xlink="http://www.w3.org/1999/xlink" x="0px" y="0px"
	 viewBox="0 0 216.8 36.4" style="enable-background:new 0 0 216.8 36.4;" xml:space="preserve">
<style type="text/css">
	.st0{clip-path:url(#SVGID_2_);}
	.st1{fill:#2CA8E0;}
	.st2{fill:#394E64;}
	.st3{clip-path:url(#SVGID_2_);fill:#71BB70;}
	.st4{clip-path:url(#SVGID_2_);fill:#2CA8E0;}
</style>
<g>
	<defs>
		<rect id="SVGID_1_" y="0" width="216.8" height="36.4"/>
	</defs>
	<clipPath id="SVGID_2_">
		<use xlink:href="#SVGID_1_"  style="overflow:visible;"/>
	</clipPath>
	<g class="st0">
		<path class="st1" d="M6.5,23.1l2.6-8.6h3.5l2.6,8.6l3-8.6h3.6l-5.2,14.9h-2.5l-3.3-10.4L7.6,29.5H5.2L0,14.5h3.6L6.5,23.1z"/>
		<path class="st1" d="M36.2,27.4c-1.5,1.5-3.4,2.2-5.6,2.2s-4.1-0.7-5.6-2.2s-2.3-3.3-2.3-5.5s0.8-4,2.3-5.5
			c1.5-1.5,3.4-2.2,5.6-2.2s4.1,0.7,5.6,2.2c1.5,1.5,2.3,3.3,2.3,5.5S37.7,25.9,36.2,27.4z M35,21.9c0-1.3-0.4-2.5-1.3-3.4
			s-1.9-1.4-3.1-1.4c-1.2,0-2.3,0.5-3.1,1.4c-0.9,0.9-1.3,2.1-1.3,3.4s0.4,2.5,1.3,3.4c0.9,0.9,1.9,1.4,3.1,1.4
			c1.2,0,2.3-0.5,3.1-1.4C34.6,24.4,35,23.3,35,21.9z"/>
		<path class="st1" d="M53.3,19.5c0,2.4-0.9,3.9-2.8,4.6l3.8,5.3h-4.1l-3.3-4.8h-2.3v4.8h-3.3V14.5h5.7c2.3,0,4,0.4,5,1.2
			C52.8,16.5,53.3,17.8,53.3,19.5z M49.3,21.3c0.4-0.4,0.6-1,0.6-1.8c0-0.8-0.2-1.4-0.6-1.7c-0.4-0.3-1.2-0.4-2.2-0.4h-2.5v4.4H47
			C48.1,21.8,48.9,21.6,49.3,21.3z"/>
		<path class="st1" d="M56.8,14.5h3.3v6.1l5.6-6.1h4.1l-5.9,6.6c0.5,0.7,1.5,2,2.8,4c1.4,1.9,2.4,3.4,3.1,4.3H66l-4.4-5.9l-1.5,1.7
			v4.2h-3.3V14.5z"/>
	</g>
	<g class="st0">
		<path class="st2" d="M124.7,29.5l-1.4-3.2h-6.3l-1.4,3.2h-3.5l6.4-14.9h3.2l6.4,14.9H124.7z M120.2,19l-1.9,4.3h3.7L120.2,19z"/>
		<path class="st2" d="M141.4,16.5c1.4,1.3,2.1,3.1,2.1,5.4c0,2.3-0.7,4.2-2.1,5.5c-1.4,1.4-3.5,2-6.4,2H130V14.5h5.3
			C137.9,14.5,140,15.2,141.4,16.5z M138.9,25.4c0.8-0.8,1.2-1.9,1.2-3.4s-0.4-2.6-1.2-3.4s-2.1-1.2-3.8-1.2h-1.9v9.1h2.1
			C136.9,26.5,138.1,26.1,138.9,25.4z"/>
		<path class="st2" d="M151.7,24l3.8-9.5h3.6l-6,14.9h-2.8l-6-14.9h3.6L151.7,24z"/>
		<path class="st2" d="M160.9,14.5h3.3v14.9h-3.3V14.5z"/>
		<path class="st2" d="M171.4,17.5c-0.3,0.3-0.5,0.6-0.5,1s0.2,0.8,0.6,1c0.4,0.3,1.3,0.6,2.7,0.9c1.4,0.3,2.5,0.9,3.3,1.6
			c0.8,0.7,1.2,1.7,1.2,3.1c0,1.3-0.5,2.4-1.5,3.3s-2.3,1.2-4,1.2c-2.4,0-4.5-0.9-6.4-2.6l2-2.4c1.6,1.4,3.1,2.1,4.5,2.1
			c0.6,0,1.1-0.1,1.4-0.4s0.5-0.6,0.5-1.1s-0.2-0.8-0.6-1.1c-0.4-0.3-1.1-0.5-2.2-0.8c-1.7-0.4-3-1-3.8-1.6
			c-0.8-0.7-1.2-1.7-1.2-3.1c0-1.4,0.5-2.5,1.5-3.3c1-0.8,2.3-1.2,3.8-1.2c1,0,2,0.2,3,0.5c1,0.3,1.9,0.8,2.6,1.5l-1.7,2.4
			c-1.3-1-2.6-1.5-4-1.5C172.1,17.1,171.7,17.3,171.4,17.5z"/>
		<path class="st2" d="M194.1,27.4c-1.5,1.5-3.4,2.2-5.6,2.2c-2.2,0-4.1-0.7-5.6-2.2c-1.5-1.5-2.3-3.3-2.3-5.5s0.8-4,2.3-5.5
			c1.5-1.5,3.4-2.2,5.6-2.2c2.2,0,4.1,0.7,5.6,2.2c1.5,1.5,2.3,3.3,2.3,5.5S195.6,25.9,194.1,27.4z M192.9,21.9
			c0-1.3-0.4-2.5-1.3-3.4c-0.9-0.9-1.9-1.4-3.2-1.4c-1.2,0-2.3,0.5-3.1,1.4c-0.9,0.9-1.3,2.1-1.3,3.4s0.4,2.5,1.3,3.4
			c0.9,0.9,1.9,1.4,3.1,1.4c1.2,0,2.3-0.5,3.2-1.4C192.5,24.4,192.9,23.3,192.9,21.9z"/>
		<path class="st2" d="M211.2,19.5c0,2.4-0.9,3.9-2.8,4.6l3.8,5.3h-4.1l-3.3-4.8h-2.3v4.8h-3.3V14.5h5.7c2.3,0,4,0.4,5,1.2
			C210.7,16.5,211.2,17.8,211.2,19.5z M207.2,21.3c0.4-0.4,0.6-1,0.6-1.8c0-0.8-0.2-1.4-0.6-1.7c-0.4-0.3-1.2-0.4-2.2-0.4h-2.5v4.4
			h2.4C206,21.8,206.8,21.6,207.2,21.3z"/>
	</g>
	<path class="st3" d="M89.1,0.5l13.7,6.6l-2.7,5.6L87.3,6.6l-7.6,15.6l15.6,7.6l6.2-12.8l5.6,2.7l-6.6,13.7c-1.3,2.6-4.4,3.7-7,2.4
		L76,27.4c-1.3-0.6-2.2-1.7-2.6-3c-0.4-1.3-0.4-2.7,0.2-4l8.5-17.5C83.4,0.4,86.5-0.7,89.1,0.5"/>
	
		<rect x="103.8" y="9.6" transform="matrix(0.4364 -0.8998 0.8998 0.4364 48.8542 103.4514)" class="st4" width="6.4" height="6.4"/>
</g>
</svg>
